<svg xmlns="http://www.w3.org/2000/svg" width="400" height="400" viewBox="0 0 100 100" fill="url(#Gradient1)">
  <defs>
    <linearGradient id="Gradient1">
      <stop class="stop1" offset="0%" />
      <stop class="stop2" offset="100%" />
    </linearGradient>
    <linearGradient id="Gradient2" x1="0" x2="0" y1="0" y2="1">
      <stop offset="0%" stop-color="red" />
      <stop offset="50%" stop-color="black" stop-opacity="0" />
      <stop offset="100%" stop-color="blue" />
    </linearGradient>
  </defs>
  <style>
    .stop1 {
      stop-color: rgb(239 148 196);
    }
    .stop2 {
      stop-color: rgb(247 210 201);
    }
  </style>
<polygon xmlns="http://www.w3.org/2000/svg" points="24.115,87.73 48.001,87.728 71.886,87.728 72.321,85.417 65.659,85.447 66.098,81.101 73.056,80.949 76.131,55.761   47.999,55.761 47.213,55.761 19.869,55.761 22.944,80.949 29.902,81.101 30.341,85.447 23.679,85.417 "></polygon><path xmlns="http://www.w3.org/2000/svg" d="M7.63,83.594c0.951,1.397,2.393,2.449,4.375,3.188l9.898,0.949h0.686l-0.72-3.823l6.813,0.032l-0.138-1.368l-6.93-0.151  l-3.439-28.159h29.081h0.744h29.827L74.387,82.42l-6.93,0.151l-0.138,1.368l6.813-0.032l-0.72,3.82h0.757l9.826-0.945  c2.6-0.97,4.277-2.473,5.125-4.594c2.189-5.473-1.835-13.609-3.998-17.979c-0.547-1.106-0.979-1.979-1.186-2.558  c-0.397-1.112-0.671-2.503-0.961-3.975c-0.669-3.396-1.428-7.246-3.91-9.232c-2.969-2.375-17.009-4.164-22.39-4.676  c-2.617,1.305-5.556,2.058-8.674,2.058s-6.057-0.753-8.674-2.059c-5.38,0.513-19.422,2.302-22.392,4.677  c-2.482,1.986-3.241,5.836-3.91,9.232c-0.29,1.472-0.564,2.863-0.961,3.975c-0.207,0.579-0.639,1.453-1.187,2.559  c-0.952,1.923-2.263,4.577-3.248,7.411c-1.253,3.605-1.976,7.504-0.75,10.569C7.082,82.692,7.333,83.159,7.63,83.594z"></path><path xmlns="http://www.w3.org/2000/svg" d="M37.122,40.639c3.028,2.303,6.791,3.687,10.879,3.687s7.852-1.384,10.879-3.687c4.333-3.295,7.147-8.488,7.147-14.339  c0-0.382-0.034-0.756-0.058-1.132c-0.589-9.412-8.411-16.895-17.969-16.895s-17.38,7.482-17.97,16.895  c-0.023,0.376-0.057,0.75-0.057,1.132C29.974,32.15,32.789,37.343,37.122,40.639z"></path>
  </svg>

