<svg xmlns="http://www.w3.org/2000/svg" width="500" height="500" fill="url(#Gradient1)">
  <defs>
    <linearGradient id="Gradient1">
      <stop class="stop1" offset="0%" />
      <stop class="stop2" offset="100%" />
    </linearGradient>
    <linearGradient id="Gradient2" x1="0" x2="0" y1="0" y2="1">
      <stop offset="0%" stop-color="red" />
      <stop offset="50%" stop-color="black" stop-opacity="0" />
      <stop offset="100%" stop-color="blue" />
    </linearGradient>
  </defs>
  <style>
    .stop1 {
    stop-color: rgb(239 148 196);
    }
    .stop2 {
    stop-color: rgb(247 210 201);
    }
  </style>

  <path d="M320,205.8c-17.7-14.8-40-23-63-23.2c-0.3,0-0.6,0-0.9,0c-55.3,0-100.1,44.8-100.1,100.1c0,28.1,11.8,54.9,32.4,74   c15.2,14,24.4,33.3,25.7,53.9h16v-51c0.1-5.3-4-9.7-9.3-9.8c-0.1,0-0.1,0-0.2,0c-11.9,0-21.5-9.7-21.5-21.6c0-0.1,0-0.1,0-0.2v-2.2   c-3.6-0.9-6.8-2.7-9.3-5.4c-8.4-8.3-8.5-21.9-0.2-30.3c8.3-8.4,21.9-8.5,30.3-0.2c0.1,0.1,0.1,0.1,0.2,0.2c8.4,8.4,8.4,21.6,0,30.6   h0.1c-2.8,2.2-5.8,3.9-9.1,5.2v2.2c-0.1,5.3,4,9.7,9.3,9.8c0.1,0,0.1,0,0.2,0c11.9,0,21.5,9.7,21.5,21.6c0,0.1,0,0.1,0,0.2v51h8   V276.1c-3.5-1-6.6-2.9-9-5.6h0.1c-4-4-6.3-9.5-6.3-15.1c0.1-11.9,9.8-21.5,21.7-21.4c11.8,0.1,21.3,9.6,21.4,21.4   c-0.1,5.7-2.4,11.2-6.5,15.2c-2.5,2.7-5.8,4.6-9.4,5.4v134.4h8v-51c0.1-12.1,9.9-21.8,22-21.8c5.4,0,9.9-4.4,10-9.8v-2.2   c-3.3-1.3-6.5-3-9.3-5.2h0c-8.4-9-8.4-22.2,0-30.6c8.2-8.6,21.8-8.9,30.4-0.7c8.6,8.2,8.9,21.8,0.7,30.4c-0.2,0.2-0.4,0.4-0.6,0.6   c-2.6,2.5-5.7,4.3-9.2,5.4v2.2c-0.1,12.1-9.9,21.8-22,21.8c-5.4,0-9.9,4.4-10,9.8v51h16c1.5-20.8,10.9-40.2,26.2-54.4   c3.1-2.9,5.9-6,8.6-9.2C368.3,304.5,362.5,241.3,320,205.8z"></path><path d="M214,432.5h13c3.3,0,6,2.7,6,6s-2.7,6-6,6h-13v11h45.2c3.3,0,6,2.7,6,6s-2.7,6-6,6H214v1.5c0.1,5.8,4.8,10.4,10.6,10.5   h62.8c5.8-0.1,10.5-4.7,10.6-10.5v-1.5h-11.6c-3.3,0-6-2.7-6-6s2.7-6,6-6H298v-11h-41.2c-3.3,0-6-2.7-6-6s2.7-6,6-6H298v-10h-84   V432.5z"></path><path d="M189.7,192.3c13.7-10.1,29.5-16.9,46.3-20V58.8c0-14.6-11.8-26.3-26.4-26.3c-14.6,0-26.3,11.8-26.3,26.4   c0,4.4,1.1,8.8,3.3,12.7c1.5,0.9,2.9,1.8,4.3,2.9c2.7,2,3.2,5.7,1.3,8.4c-2,2.7-5.7,3.2-8.4,1.3c-20.3-15-48.9-10.6-63.9,9.7   c-10.8,14.6-11.9,34.2-2.8,49.9c1.7,2.9,0.7,6.5-2.2,8.2c-2.9,1.7-6.5,0.7-8.2-2.2c0,0,0,0,0,0c-0.4-0.7-0.8-1.5-1.2-2.2   c-1.3,0.6-2.6,1.3-3.8,2.1c-14.2,9.5-18.1,28.7-8.6,42.9c1.9,2.9,4.4,5.5,7.2,7.6c8.2-4.3,17.3-6.5,26.6-6.5c3.3,0,6,2.7,6,6   s-2.7,6-6,6c-25.2-0.1-45.8,20.2-45.9,45.4c-0.1,25.2,20.2,45.8,45.4,45.9c0.1,0,0.3,0,0.4,0c3.3,0,6,2.7,6.1,6c0,3.3-2.6,6-5.9,6   c0,0,0,0-0.1,0c-2.7,0-5.4-0.2-8-0.6v11.4c-0.1,18,14.5,32.7,32.5,32.7c0,0,0,0,0,0c4.9,0,9.8-1.1,14.2-3.3   C129.1,299.2,139.9,229,189.7,192.3z M172.9,108.6L172.9,108.6c12.4-3.2,25.3,2.1,32,13c6,1.6,12.3-0.2,16.6-4.6   c2.3-2.4,6.1-2.5,8.5-0.2s2.5,6.1,0.2,8.5c0,0,0,0-0.1,0.1c-5.5,5.6-13,8.8-20.8,8.8c0,0-0.1,0-0.1,0c0.5,5.8-0.7,11.7-3.5,16.8   c-1.7,2.9-5.3,3.8-8.2,2.2c-2.8-1.6-3.8-5.1-2.3-8c4.6-8.3,1.5-18.7-6.8-23.3c-3.8-2.1-8.3-2.7-12.5-1.6c-3.2,0.8-6.5-1.1-7.3-4.3   C167.7,112.7,169.7,109.4,172.9,108.6z M141.1,184c-1.5-3-0.3-6.6,2.7-8c0,0,0.1,0,0.1-0.1v0c5.7-2.8,8.7-9.2,7.1-15.4   c-0.8-3.2,1.1-6.5,4.3-7.3c3.2-0.8,6.5,1.1,7.3,4.3c1.7,6.7,0.6,13.8-3,19.6c0.6,2.5,1.8,4.9,3.7,6.7c2.4,2.3,2.4,6.1,0.1,8.5   s-6.1,2.4-8.5,0.1c-1.9-1.9-3.5-4-4.7-6.3c-0.4,0.2-0.7,0.4-1.1,0.6C146.2,188.2,142.6,187,141.1,184z"></path><path d="M265.9,255.4L265.9,255.4c0-5.3-4.3-9.5-9.5-9.5s-9.5,4.3-9.5,9.5c0,2.5,1,4.9,2.8,6.7c3.7,3.7,9.7,3.7,13.5,0   C264.9,260.4,265.9,258,265.9,255.4z"></path><path d="M314.6,298.3c-3.7-3.7-9.7-3.7-13.5,0c-3.7,3.7-3.7,9.7,0,13.5c0,0,0,0,0,0c3.7,3.7,9.7,3.7,13.5,0   C318.3,308.1,318.3,302,314.6,298.3z"></path><path d="M211.6,298.4C211.6,298.4,211.6,298.3,211.6,298.4c-3.8-3.8-9.8-3.8-13.5,0c-3.7,3.7-3.7,9.7,0,13.5   c3.7,3.7,9.7,3.7,13.5,0C215.3,308.1,215.3,302.1,211.6,298.4z"></path><path d="M385.1,296.9c25.2,0.1,45.8-20.2,45.9-45.4c0.1-25.2-20.2-45.8-45.4-45.9c-0.1,0-0.3,0-0.4,0c-3.3,0-6-2.7-6-6s2.7-6,6-6   c9.3,0,18.4,2.2,26.6,6.5c13.7-10.3,16.4-29.7,6.2-43.3c-2.1-2.8-4.7-5.2-7.6-7.2c-1.2-0.8-2.5-1.5-3.8-2.1   c-0.4,0.7-0.8,1.5-1.2,2.2c-1.7,2.9-5.3,3.8-8.2,2.2c-2.8-1.7-3.8-5.3-2.2-8.2c4-6.9,6.1-14.8,6.1-22.8c0-25.2-20.4-45.7-45.7-45.7   c-9.7,0-19.2,3.1-27.1,8.9c-2.7,2-6.4,1.4-8.4-1.3s-1.4-6.4,1.3-8.4c1.4-1,2.8-2,4.3-2.9c7-12.8,2.3-28.8-10.5-35.8   c-12.8-7-28.8-2.3-35.8,10.5c-2.1,3.9-3.2,8.2-3.2,12.6v113.6c60.9,11.1,101.3,69.4,90.2,130.4c-3,16.8-9.9,32.6-20,46.3   c4.4,2.2,9.2,3.3,14.1,3.3c18,0,32.6-14.7,32.6-32.7c0,0,0,0,0,0v-11.4c-2.7,0.4-5.3,0.6-8,0.6c-3.3,0-5.9-2.7-5.9-5.9   c0,0,0,0,0-0.1C379.1,299.6,381.8,296.9,385.1,296.9z M341.4,120c-9.3,1.9-15.3,10.9-13.4,20.2c0.3,1.7,0.9,3.3,1.8,4.9   c1.6,2.9,0.6,6.5-2.3,8.2c-2.9,1.6-6.5,0.6-8.2-2.3c0,0,0,0,0-0.1c-2.8-5.1-4-11-3.5-16.8c0,0-0.1,0-0.1,0   c-7.8,0-15.3-3.2-20.8-8.8c-2.3-2.4-2.3-6.1,0-8.5c2.4-2.3,6.1-2.3,8.5,0c0,0,0,0,0.1,0.1c4.3,4.4,10.7,6.1,16.6,4.6   c6.7-10.9,19.7-16.1,32-13c3.2,0.8,5.1,4.1,4.3,7.3s-4.1,5.1-7.3,4.3C346.5,119.6,343.9,119.5,341.4,120L341.4,120z M370.9,183.9   c-1.5,3-5,4.2-8,2.8c-0.4-0.2-0.7-0.4-1.1-0.6c-1.2,2.3-2.8,4.5-4.7,6.3c-2.4,2.3-6.2,2.3-8.5-0.1c-2.3-2.4-2.3-6.2,0.1-8.5   c1.9-1.8,3.2-4.2,3.7-6.7c-3.6-5.9-4.7-13-3-19.6c0.8-3.2,4.1-5.1,7.3-4.3s5.1,4.1,4.3,7.3c-1.6,6.2,1.4,12.6,7.1,15.4   C371.1,177.3,372.4,180.9,370.9,183.9C370.9,183.9,370.9,183.9,370.9,183.9L370.9,183.9z"></path>

</svg>