<svg xmlns="http://www.w3.org/2000/svg" width="400" height="400" viewBox="0 0 100 100" fill="url(#Gradient1)">
  <defs>
    <linearGradient id="Gradient1">
      <stop class="stop1" offset="0%" />
      <stop class="stop2" offset="100%" />
    </linearGradient>
  </defs>
  <style>
    .stop1 {
    stop-color: rgb(226, 32, 63);
    }
    .stop2 {
    stop-color: rgb(76, 43, 168);
    }
  </style>
<path d="m90 14h-80c-0.55078 0-1 0.44922-1 1v70c0 0.55469 0.44922 1 1 1h80c0.55469 0 1-0.44531 1-1v-70c0-0.55078-0.44531-1-1-1zm-79 2h78v13h-78zm78 68h-78v-53h78z"></path>
<path d="m18.5 19c-1.9297 0-3.5 1.5703-3.5 3.5s1.5703 3.5 3.5 3.5 3.5-1.5703 3.5-3.5-1.5703-3.5-3.5-3.5zm0 5c-0.82812 0-1.5-0.67188-1.5-1.5s0.67188-1.5 1.5-1.5 1.5 0.67188 1.5 1.5-0.67188 1.5-1.5 1.5z"></path>
<path d="m37.461 66.445c0.19531 0.19531 0.45312 0.29297 0.70703 0.29297 0.25391 0 0.51172-0.097656 0.70703-0.29297 0.39062-0.39062 0.39062-1.0234 0-1.4141l-7.5312-7.5312 7.5312-7.5312c0.39062-0.39062 0.39062-1.0234 0-1.4141-0.39062-0.39063-1.0234-0.39063-1.4141 0l-8.2383 8.2383c-0.39062 0.39062-0.39062 1.0234 0 1.4141z" ></path>  
<path d="m60.984 66.445c0.19531 0.19531 0.45312 0.29297 0.70703 0.29297s0.51172-0.097656 0.70703-0.29297l8.2383-8.2383c0.39062-0.39062 0.39062-1.0234 0-1.4141l-8.2383-8.2383c-0.39063-0.39063-1.0234-0.39063-1.4141 0-0.39062 0.39062-0.39062 1.0234 0 1.4141l7.5312 7.5312-7.5312 7.5312c-0.39062 0.39062-0.39062 1.0234 0 1.4141z"></path>
<path d="m43.258 73.422c0.125 0.054687 0.25781 0.078125 0.38672 0.078125 0.39062 0 0.76172-0.23047 0.92188-0.61328l12.57-30c0.21484-0.50781-0.027344-1.0938-0.53516-1.3086-0.51172-0.21094-1.0938 0.027344-1.3086 0.53516l-12.57 30c-0.21484 0.50781 0.027344 1.0938 0.53516 1.3086z"></path>  
<path d="m84.707 19.293c-0.39062-0.39062-1.0234-0.39062-1.4141 0l-1.793 1.793-1.793-1.793c-0.39062-0.39062-1.0234-0.39062-1.4141 0s-0.39062 1.0234 0 1.4141l1.793 1.793-1.793 1.793c-0.39062 0.39062-0.39062 1.0234 0 1.4141 0.19531 0.19531 0.45312 0.29297 0.70703 0.29297s0.51172-0.097656 0.70703-0.29297l1.793-1.793 1.793 1.793c0.19531 0.19531 0.45312 0.29297 0.70703 0.29297s0.51172-0.097656 0.70703-0.29297c0.39062-0.39062 0.39062-1.0234 0-1.4141l-1.793-1.793 1.793-1.793c0.39062-0.39062 0.39062-1.0234 0-1.4141z"></path>
  </svg>