<svg xmlns="http://www.w3.org/2000/svg" width="500" height="500" viewBox="0 0 100 100" fill="url(#Gradient1)">
<defs>
  <linearGradient id="Gradient1">
    <stop class="stop1" offset="0%" />
    <stop class="stop2" offset="100%" />
  </linearGradient>
  <linearGradient id="Gradient2" x1="0" x2="0" y1="0" y2="1">
    <stop offset="0%" stop-color="red" />
    <stop offset="50%" stop-color="black" stop-opacity="0" />
    <stop offset="100%" stop-color="blue" />
  </linearGradient>
</defs>
<style>
  .stop1 {
  stop-color: rgb(239 148 196);
  }
  .stop2 {
  stop-color: rgb(247 210 201);
  }
</style>

<g xmlns="http://www.w3.org/2000/svg"><path d="M70.947,51.604c0-2.5-2.034-4.533-4.534-4.533c-2.499,0-4.534,2.033-4.534,4.533s2.035,4.534,4.534,4.534   C68.913,56.139,70.947,54.104,70.947,51.604z"></path><path d="M89.953,50.001L75.849,25.57v0.534h-9.79l-8.434,8.433c0.695,1.16,1.102,2.511,1.102,3.958   c0,4.264-3.469,7.734-7.734,7.734c-4.264,0-7.734-3.471-7.734-7.734c0-4.265,3.47-7.734,7.734-7.734   c1.661,0,3.197,0.531,4.458,1.426l9.282-9.282h9.575l-4.332-7.505H44.934v13.484L30.046,43.771   c0.642,1.127,1.013,2.427,1.013,3.813c0,4.265-3.47,7.733-7.734,7.733c-4.265,0-7.734-3.469-7.734-7.733s3.469-7.734,7.734-7.734   c1.72,0,3.306,0.571,4.592,1.525l13.816-13.816V15.399h-11.71L10.046,50.001l10.593,18.346l18.343-18.342h19.866   c0.74-3.499,3.85-6.135,7.565-6.135c4.265,0,7.733,3.471,7.733,7.734c0,4.265-3.469,7.734-7.733,7.734   c-3.716,0-6.825-2.635-7.565-6.134H40.307L22.296,71.217l7.728,13.384h14.155v-6.6c-3.499-0.738-6.134-3.85-6.134-7.564   c0-4.266,3.469-7.734,7.734-7.734c3.716,0,6.826,2.635,7.565,6.134h25.547v0.325L89.953,50.001z"></path><path d="M18.792,47.584c0,2.5,2.034,4.534,4.534,4.534c2.5,0,4.534-2.034,4.534-4.534c0-2.499-2.034-4.534-4.534-4.534   C20.826,43.05,18.792,45.085,18.792,47.584z"></path><path d="M50.312,70.437c0-2.5-2.034-4.534-4.534-4.534s-4.534,2.034-4.534,4.534c0,2.499,2.034,4.533,4.534,4.533   S50.312,72.936,50.312,70.437z"></path><path d="M50.993,33.961c-2.5,0-4.534,2.034-4.534,4.534c0,2.499,2.034,4.533,4.534,4.533s4.534-2.034,4.534-4.533   C55.526,35.995,53.492,33.961,50.993,33.961z"></path><path d="M47.378,78.001v6.6h22.598l7.255-12.564H53.344C52.714,75.019,50.36,77.372,47.378,78.001z"></path></g>

</svg>